<svg xmlns="http://www.w3.org/2000/svg" version="1.1" xmlns:xlink="http://www.w3.org/1999/xlink" xmlns:svgjs="http://svgjs.dev/svgjs" width="1500" height="1500" viewBox="0 0 1500 1500"><rect width="1500" height="1500" fill="#ffffff"></rect><g transform="matrix(0.6666666666666666,0,0,0.6666666666666666,249.39393939393932,458.94373968149955)"><svg viewBox="0 0 396 231" data-background-color="#ffffff" preserveAspectRatio="xMidYMid meet" height="875" width="1500" xmlns="http://www.w3.org/2000/svg" xmlns:xlink="http://www.w3.org/1999/xlink"><g id="tight-bounds" transform="matrix(1,0,0,1,0.24000000000003752,-0.2417209138738201)"><svg viewBox="0 0 395.5199999999999 231.48344182774764" height="231.48344182774764" width="395.5199999999999"><g><svg viewBox="0 0 395.5199999999999 231.48344182774764" height="231.48344182774764" width="395.5199999999999"><g transform="matrix(1,0,0,1,0,173.39518572901343)"><svg viewBox="0 0 395.5199999999999 58.08825609873421" height="58.08825609873421" width="395.5199999999999"><g id="textblocktransform"><svg viewBox="0 0 395.5199999999999 58.08825609873421" height="58.08825609873421" width="395.5199999999999" id="textblock"><g><svg viewBox="0 0 395.5199999999999 36.017756317110965" height="36.017756317110965" width="395.5199999999999"><g transform="matrix(1,0,0,1,0,0)"><svg width="395.5199999999999" viewBox="-3.778389999999999 -49.20978000000001 648.8730273024499 66.36066000000002" height="36.017756317110965" data-palette-color="#734a4a"><path d="M53.01 6.578l-0.907 2.349-15.67 1.378-0.158-1.793 4.367-4.109-2.363-26.866-10.283 33.51-3.098 0.273-15.957-31.554 2.456 27.913 5.513 2.074-0.898 2.348-11.934 1.05-0.158-1.793 4.367-4.109-2.538-28.858-5.527-2.234 0.947-2.353 11.486-1.01 14.925 29.536 9.54-31.688 12.084-1.063 0.158 1.803-4.426 4.114 2.621 29.805zM83.809-0.358l-8.079 7.499c-1.413 0.407-3.134 0.688-5.162 0.84v0c-2.234 0.168-4.285-0.255-6.153-1.271-1.868-1.016-3.385-2.466-4.55-4.35-1.165-1.891-1.839-4.037-2.019-6.437v0c-0.196-2.599 0.412-5.082 1.825-7.448 1.412-2.373 3.267-4.325 5.566-5.855 2.298-1.53 4.564-2.38 6.797-2.548v0c3.231-0.244 5.833 0.834 7.805 3.232 1.973 2.398 3.102 5.716 3.388 9.954v0l-18.388 1.386c0.434 2.648 1.362 4.764 2.785 6.348 1.43 1.584 3.258 2.292 5.486 2.124v0c2.2-0.166 5.217-1.968 9.049-5.405v0zM69.525-15.166c-3.43 0.259-5.05 2.761-4.859 7.506v0l11.238-0.847c-0.427-1.673-0.832-2.966-1.215-3.879-0.389-0.907-0.988-1.624-1.797-2.151-0.815-0.527-1.954-0.735-3.417-0.625v0zM117.948 2.035l-0.95 2.327-7.903 0.515-8.382-9.906-5.023 5.358 4.809 2.894-0.951 2.326-11.106 0.724-0.117-1.796 10.654-11.497-7.707-8.788-4.677-2.411 1.001-2.33 7.903-0.515 8.322 9.76 4.836-5.135-4.858-2.901 1.01-2.33 11.047-0.72 0.117 1.806-10.458 11.284 7.695 8.738zM136.781 0.894l-1.017 2.323-14.306 0.83-0.105-1.797 4.247-3.812-0.814-14.017-4.629-2.786-0.105-1.807 8.608-3.916 2.146-0.124 1.377 23.72zM126.482-39.016c1.105-0.064 2.029 0.273 2.773 1.011 0.744 0.745 1.15 1.686 1.216 2.824v0c0.046 0.799-0.159 1.572-0.617 2.32-0.458 0.741-1.057 1.343-1.798 1.807-0.748 0.464-1.488 0.717-2.22 0.76v0c-1.065 0.062-1.969-0.273-2.713-1.005-0.75-0.724-1.159-1.669-1.226-2.834v0c-0.047-0.805 0.159-1.579 0.617-2.319 0.464-0.748 1.067-1.354 1.807-1.818 0.741-0.457 1.462-0.706 2.161-0.746zM154.706-25.009c1.405-0.071 3.053 0.038 4.944 0.33 1.884 0.291 3.257 0.649 4.119 1.072v0l0.41 8.059-2.157 0.11c-1.383-1.605-2.935-2.841-4.654-3.708-1.72-0.867-3.478-1.255-5.276-1.164v0c-1.471 0.075-2.55 0.791-3.235 2.147-0.679 1.356-0.953 3.303-0.825 5.84v0c0.156 3.069 0.945 5.589 2.367 7.559 1.422 1.97 3.365 2.893 5.828 2.768v0c1.938-0.099 4.658-1.542 8.161-4.33v0l1.615 2.03-7.305 6.39c-1.423 0.373-3.133 0.61-5.13 0.711v0c-2.237 0.114-4.277-0.36-6.12-1.421-1.843-1.061-3.324-2.548-4.442-4.46-1.119-1.919-1.74-4.08-1.862-6.484v0c-0.132-2.603 0.487-5.068 1.857-7.394 1.37-2.333 3.139-4.232 5.307-5.697 2.168-1.465 4.301-2.251 6.398-2.358zM199.482-1.974l-1.006 2.303-9.912 0.41-0.179-4.357-5.482 4.69c-0.655 0.294-1.482 0.462-2.481 0.503v0c-2.938 0.121-5.089-0.517-6.454-1.915-1.359-1.398-2.081-3.133-2.167-5.205v0c-0.05-1.199 0.318-2.408 1.101-3.629 0.784-1.22 1.956-2.396 3.518-3.528v0l11.57-0.478-0.112-2.707c-0.161-3.903-2.33-5.769-6.506-5.597v0c-2.105 0.087-4.694 1.378-7.767 3.874v0l-1.586-2.036 6.93-5.961c1.518-0.396 3.18-0.632 4.985-0.706v0c3.171-0.131 5.664 0.537 7.479 2.003 1.815 1.46 2.783 3.645 2.903 6.556v0l0.588 14.217zM182.024-3.255c1.972-0.081 4.057-1.055 6.255-2.921v0l-0.194-4.706-8.713 0.36c-0.386 0.516-0.651 1.031-0.797 1.544-0.146 0.506-0.206 1.059-0.182 1.659v0c0.048 1.166 0.409 2.145 1.083 2.938 0.667 0.793 1.516 1.168 2.548 1.126zM235.701-3.048l-1.089 2.295-9.865 0.308-0.523-16.731c-0.055-1.772-0.377-3.006-0.966-3.702-0.596-0.702-1.593-1.031-2.992-0.987v0c-1.033 0.032-2.063 0.248-3.091 0.647-1.021 0.399-2.202 1.136-3.543 2.212v0l0.468 14.982 4.559 1.509-1.079 2.294-14.323 0.448-0.056-1.799 4.347-3.698-0.426-13.633-4.541-2.51-0.056-1.809 8.782-4.536 1.949 6.312 6.744-5.733c0.758-0.29 1.69-0.453 2.796-0.488v0c2.332-0.073 4.206 0.562 5.622 1.905 1.409 1.343 2.151 3.201 2.225 5.574v0l0.487 15.582zM265.011-5.453l5.336 1.668-1.066 2.277-15.738 0.24-0.027-1.8 4.653-3.781-0.456-29.877-5.335-1.619 1.115-2.277 15.738-0.24 0.028 1.81-4.702 3.832zM293.543-4.188l-1.115 2.277-9.369 0.143-15.589-19.515 14.985-13.51-5.881-4.021 1.125-2.277 13.778-0.21 0.028 1.81-17.452 15.758 13.689 16.883zM312.189-4.189l-1.136 2.267-14.33 0.088-0.011-1.8 4.438-3.587-0.086-14.04-4.479-3.023-0.011-1.81 8.799-3.463 2.15-0.014 0.146 23.76zM303.971-44.579c1.107-0.007 2.012 0.378 2.717 1.153 0.705 0.782 1.061 1.744 1.068 2.884v0c0.005 0.8-0.24 1.562-0.736 2.284-0.496 0.716-1.125 1.287-1.89 1.712-0.771 0.425-1.523 0.639-2.256 0.644v0c-1.067 0.007-1.952-0.375-2.657-1.144-0.711-0.762-1.071-1.727-1.077-2.893v0c-0.005-0.807 0.24-1.568 0.736-2.285 0.502-0.723 1.135-1.297 1.899-1.722 0.764-0.418 1.496-0.629 2.196-0.633zM336.173-5.822l-5.063 4.007c-0.833 0.266-1.85 0.399-3.05 0.398v0c-2.88-0.002-4.98-0.73-6.299-2.184-1.319-1.454-1.978-3.701-1.976-6.741v0l0.009-14.49-5.41-0.003 0.002-2.15 9.786-11.225 2.15 0.002-0.006 11.08 9.02 0.005-0.002 2.3-9.02-0.005-0.009 14.89c-0.002 2.64 1.301 3.961 3.908 3.962v0c0.7 0 1.37-0.143 2.01-0.429 0.633-0.28 1.45-0.786 2.451-1.518v0zM354.129-28.993c1.407 0.011 3.045 0.217 4.915 0.618 1.864 0.401 3.214 0.838 4.05 1.311v0l-0.062 8.069-2.16-0.016c-1.287-1.683-2.764-3.008-4.429-3.974-1.666-0.966-3.399-1.456-5.199-1.47v0c-1.473-0.011-2.592 0.64-3.355 1.954-0.757 1.314-1.145 3.241-1.164 5.781v0c-0.024 3.073 0.617 5.635 1.921 7.685 1.304 2.05 3.19 3.085 5.656 3.104v0c1.94 0.015 4.74-1.267 8.4-3.846v0l1.494 2.122-7.666 5.951c-1.442 0.289-3.163 0.426-5.164 0.411v0c-2.24-0.017-4.249-0.609-6.026-1.777-1.778-1.167-3.169-2.738-4.174-4.712-1.005-1.981-1.498-4.175-1.48-6.581v0c0.02-2.607 0.782-5.031 2.286-7.273 1.504-2.249 3.381-4.041 5.631-5.377 2.25-1.336 4.425-1.996 6.526-1.98zM401.231-3.241l-1.19 2.239-9.869-0.177 0.301-16.737c0.032-1.773-0.232-3.021-0.793-3.745-0.554-0.73-1.53-1.108-2.93-1.133v0c-1.04-0.019-2.08 0.146-3.12 0.494-1.04 0.348-2.255 1.026-3.647 2.035v0l-0.269 14.987 4.48 1.731-1.191 2.239-14.337-0.257 0.032-1.8 4.523-3.479 0.542-30.176-4.403-3.179 0.032-1.81 8.889-3.201 2.15 0.039-0.399 22.206 6.713-5.15c0.771-0.253 1.707-0.369 2.807-0.35v0c2.34 0.042 4.184 0.769 5.532 2.18 1.342 1.411 1.991 3.303 1.948 5.676v0l-0.28 15.587zM431.317-7.026l-8.805 6.632c-1.448 0.261-3.188 0.363-5.22 0.307v0c-2.239-0.061-4.236-0.693-5.991-1.894-1.755-1.202-3.115-2.799-4.08-4.793-0.966-2-1.416-4.204-1.35-6.609v0c0.071-2.606 0.931-5.013 2.578-7.223 1.648-2.216 3.693-3.967 6.136-5.254 2.443-1.287 4.784-1.9 7.022-1.839v0c3.239 0.088 5.717 1.427 7.434 4.014 1.717 2.588 2.5 6.004 2.351 10.248v0.001l-18.433-0.504c0.16 2.679 0.867 4.879 2.12 6.6 1.26 1.722 3.006 2.613 5.239 2.674v0c2.206 0.06 5.391-1.423 9.555-4.45v0zM418.624-23.219c-3.439-0.094-5.306 2.229-5.602 6.97v0l11.265 0.308c-0.253-1.708-0.524-3.035-0.811-3.984-0.294-0.942-0.817-1.716-1.567-2.324-0.757-0.608-1.869-0.931-3.335-0.971v0zM469.644-0.964l-1.245 2.215-9.863-0.374 0.634-16.728c0.067-1.772-0.169-3.025-0.708-3.759-0.546-0.741-1.518-1.138-2.917-1.192v0c-1.033-0.039-2.075 0.105-3.129 0.432-1.046 0.327-2.275 0.981-3.687 1.962v0l-0.567 14.979 4.444 1.82-1.235 2.215-14.319-0.543 0.068-1.799 4.591-3.388 0.517-13.631-4.357-2.817 0.069-1.808 9.075-3.919 1.507 6.431 7.125-5.254c0.776-0.237 1.717-0.335 2.823-0.293v0c2.332 0.088 4.157 0.851 5.477 2.289 1.313 1.437 1.925 3.342 1.835 5.714v0l-0.59 15.578zM507.512-16.116c2.17 0.115 3.914-0.41 5.231-1.576 1.317-1.172 2.033-2.84 2.147-5.003v0c0.157-2.969-0.456-5.445-1.839-7.428-1.384-1.983-3.51-3.05-6.38-3.202v0c-2.204-0.117-4.204 0.398-6 1.545v0l-1.598 30.178 7.837 2.518-1.268 2.196-18.314-0.97 0.095-1.798 4.9-3.455 1.586-29.938-5.213-1.979 1.268-2.196 6.301 0.334c3.176 0.168 6.303 0.234 9.383 0.196v0c2.344-0.009 4.048 0.014 5.113 0.071v0c2.403 0.127 4.504 0.743 6.301 1.846 1.798 1.097 3.161 2.531 4.089 4.302 0.928 1.772 1.335 3.726 1.221 5.863v0c-0.124 2.337-1.11 4.501-2.957 6.492-1.841 1.992-4.128 3.503-6.86 4.534-2.731 1.024-5.378 1.401-7.941 1.132v0l-2.222-1.72 1.268-2.196 3.805 0.201zM540.69 2.884l-1.288 2.185-14.312-0.884 0.111-1.797 4.671-3.278 1.861-30.123-4.261-3.369 0.112-1.806 9.02-2.809 2.146 0.132-2.457 39.774zM572.511 5.03l-1.253 2.179-9.896-0.684 0.3-4.349-5.963 4.058c-0.683 0.22-1.524 0.296-2.522 0.227v0c-2.933-0.203-5.001-1.074-6.205-2.614-1.197-1.539-1.724-3.343-1.58-5.412v0c0.083-1.197 0.581-2.359 1.493-3.485 0.913-1.126 2.208-2.166 3.885-3.12v0l11.552 0.799 0.187-2.704c0.269-3.897-1.681-5.99-5.851-6.278v0c-2.102-0.145-4.817 0.853-8.146 2.995v0l-1.352-2.198 7.544-5.162c1.553-0.227 3.23-0.278 5.032-0.154v0c3.166 0.219 5.57 1.157 7.214 2.814 1.643 1.651 2.365 3.929 2.164 6.835v0l-0.981 14.197zM555.301 1.837c1.969 0.136 4.148-0.602 6.538-2.215v0l0.324-4.699-8.699-0.601c-0.44 0.471-0.761 0.953-0.962 1.447-0.201 0.487-0.322 1.03-0.363 1.629v0c-0.08 1.164 0.17 2.177 0.752 3.039 0.575 0.862 1.378 1.328 2.41 1.4zM608.629 7.948l-1.335 2.161-9.839-0.779 1.321-16.688c0.14-1.768-0.044-3.03-0.553-3.785-0.515-0.763-1.47-1.2-2.865-1.31v0c-1.03-0.082-2.078 0.019-3.144 0.303-1.059 0.284-2.314 0.887-3.764 1.808v0l-1.184 14.943 4.366 2.001-1.325 2.162-14.285-1.131 0.142-1.794 4.727-3.197 1.077-13.597-4.237-2.994 0.143-1.804 9.228-3.543 1.242 6.488 7.334-4.957c0.785-0.205 1.73-0.264 2.833-0.176v0c2.326 0.184 4.119 1.022 5.378 2.512 1.253 1.49 1.786 3.418 1.599 5.784v0l-1.231 15.541zM630.458-15.206c2.258 0.201 4.229 0.956 5.912 2.264 1.677 1.307 2.926 2.988 3.748 5.042 0.821 2.054 1.125 4.28 0.91 6.678v0c-0.231 2.59-1.237 4.94-3.017 7.049-1.78 2.104-3.929 3.723-6.447 4.857-2.511 1.135-4.882 1.603-7.112 1.405v0c-2.231-0.199-4.185-0.952-5.863-2.26-1.677-1.307-2.937-2.986-3.778-5.035-0.841-2.056-1.154-4.283-0.941-6.68v0c0.231-2.596 1.237-4.946 3.018-7.05 1.781-2.11 3.93-3.733 6.447-4.867 2.517-1.134 4.892-1.602 7.123-1.403zM627.155-10.922c-3.592-0.32-5.619 2.1-6.079 7.259v0c-0.276 3.101 0.151 5.739 1.283 7.915 1.131 2.182 2.925 3.383 5.381 3.602v0c1.766 0.157 3.157-0.388 4.172-1.636 1.022-1.254 1.647-3.163 1.876-5.726v0c0.273-3.061-0.157-5.673-1.29-7.836-1.132-2.169-2.913-3.362-5.343-3.578z" opacity="1" transform="matrix(1,0,0,1,0,0)" fill="#734a4a" class="wordmark-text-0" data-fill-palette-color="primary" id="text-0"></path></svg></g></svg></g><g transform="matrix(1,0,0,1,3.5,38.742509376570624)"><svg viewBox="0 0 388.5199999999999 19.345746722163586" height="19.345746722163586" width="388.5199999999999"><g transform="matrix(1,0,0,1,0,0)"><svg width="388.5199999999999" viewBox="-1.5 -37.75 1049.55 53" height="19.345746722163586" data-palette-color="#4b2929"><path d="M10.75-31.7Q17.55-31.7 21.53-29.83 25.5-27.95 27.55-25.65L27.55-25.65Q29.2-23.75 30.25-21.28 31.3-18.8 31.3-15.35L31.3-15.35Q31.3-12.8 30.15-10.03 29-7.25 27.15-5.55L27.15-5.55Q25.2-3.7 23.48-2.55 21.75-1.4 18.82-0.68 15.9 0.05 11.4 0.05L11.4 0.05Q8 0.05 5.25-0.73 2.5-1.5 2.5-3.35L2.5-3.35Q2.5-4.1 3.18-4.53 3.85-4.95 4.65-4.95L4.65-4.95Q5.1-4.95 5.25-4.9L5.25-4.9Q5.6-8.2 5.6-11.9L5.6-11.9Q5.6-16.05 5.4-18.78 5.2-21.5 4.85-24.2L4.85-24.2Q4.8-24.55 4.63-26.15 4.45-27.75 4.45-29.4L4.45-29.4Q4.45-30.45 5.5-31.18 6.55-31.9 7.65-31.9L7.65-31.9Q8.3-31.9 9.4-31.8L9.4-31.8Q10.3-31.7 10.75-31.7L10.75-31.7ZM10.1-4.65Q11.3-4.45 13.25-4.45L13.25-4.45Q16.55-4.45 19.5-5.83 22.45-7.2 24.25-9.68 26.05-12.15 26.05-15.4L26.05-15.4Q26.05-18.8 24.85-21.2 23.65-23.6 21.15-25.15L21.15-25.15Q19.3-26.3 16.6-26.83 13.9-27.35 10.1-27.35L10.1-27.35Q10.1-26.15 10.25-24.35L10.25-24.35Q10.25-23.75 10.35-22.25L10.35-22.25Q10.65-16.45 10.65-12.9L10.65-12.9Q10.65-7.75 10.1-4.65L10.1-4.65ZM65.58-10.6Q65.58-12.5 66.28-14.43 66.98-16.35 68.13-17.95L68.13-17.95Q69.28-19.55 71.78-20.58 74.28-21.6 76.23-21.6L76.23-21.6Q78.23-21.6 80.31-21.05 82.38-20.5 83.18-19.35L83.18-19.35Q85.03-16.75 85.03-14.25L85.03-14.25Q85.03-12.9 84.46-11.95 83.88-11 82.83-9.9L82.83-9.9Q81.98-9 80.16-8.7 78.33-8.4 76.53-8.4L76.53-8.4Q75.38-8.4 73.73-8.63 72.08-8.85 70.53-9.2L70.53-9.2Q70.63-8.2 71.03-7.25 71.43-6.3 71.98-5.8L71.98-5.8Q72.98-4.85 74.06-4.6 75.13-4.35 76.83-4.35L76.83-4.35Q78.63-4.35 80.18-4.95L80.18-4.95Q81.43-5.4 82.23-5.4L82.23-5.4Q83.18-5.4 83.68-4.83 84.18-4.25 84.18-3.35L84.18-3.35Q84.18-2.1 82.73-1.3 81.28-0.5 79.41-0.13 77.53 0.25 76.38 0.25L76.38 0.25Q74.03 0.25 71.83-0.6 69.63-1.45 68.18-3L68.18-3Q66.98-4.4 66.28-6.38 65.58-8.35 65.58-10.6L65.58-10.6ZM76.48-17.35Q75.38-17.35 74.28-16.93 73.18-16.5 72.48-15.75L72.48-15.75Q71.58-14.8 71.26-14.23 70.93-13.65 70.83-12.65L70.83-12.65Q72.08-12.25 76.03-12.25L76.03-12.25Q78.18-12.25 79.36-12.9 80.53-13.55 80.53-14.6L80.53-14.6Q80.53-15.65 79.23-16.5 77.93-17.35 76.48-17.35L76.48-17.35ZM125.66-7.75Q125.66-5.85 126.24-4.83 126.81-3.8 127.71-3.8L127.71-3.8Q128.21-3.8 128.66-3.88 129.11-3.95 129.56-3.95L129.56-3.95Q130.06-3.95 130.44-3.45 130.81-2.95 130.81-2.35L130.81-2.35Q130.81-1.15 129.69-0.48 128.56 0.2 126.66 0.2L126.66 0.2Q125.31 0.2 123.94-0.63 122.56-1.45 121.66-3.23 120.76-5 120.76-7.65L120.76-7.65Q120.76-13.35 120.96-17.3L120.96-17.3Q121.21-22 121.21-29.15L121.21-29.15Q121.21-31.4 121.46-32.3L121.46-32.3Q121.76-33 122.44-33.38 123.11-33.75 123.86-33.75L123.86-33.75Q124.61-33.75 125.19-33.5 125.76-33.25 125.96-32.7L125.96-32.7Q126.16-32.1 126.24-31.53 126.31-30.95 126.31-29.9L126.31-29.9Q126.31-27.85 126.16-25.95L126.16-25.95Q126.06-23.65 126.06-22.6L126.06-22.6Q125.66-13.8 125.66-7.75L125.66-7.75ZM167-32.1Q168.75-31.95 170.05-31.18 171.35-30.4 171.35-28.85L171.35-28.85Q171.35-27.7 170.27-27.03 169.2-26.35 167.7-26.35L167.7-26.35Q166.25-26.35 165.7-27.1 165.15-27.85 165.15-28.65L165.15-28.65Q165.15-30.15 165.47-31.15 165.8-32.15 167-32.1L167-32.1ZM171-18.95L171-9.95 171-8.5Q171-6.55 171.12-4.83 171.25-3.1 171.45-1.35L171.45-1.35Q171.4-0.85 170.7-0.33 170 0.2 169.45 0.2L169.45 0.2Q168.5 0.2 167.52-0.18 166.55-0.55 166.35-1.1L166.35-1.1Q166.05-2.7 166.05-3.95L166.05-3.95Q166.05-8.05 165.8-13.15L165.8-13.15Q165.6-17.65 165.6-19.45L165.6-19.45Q165.6-20.35 166.5-21 167.4-21.65 168.4-21.65L168.4-21.65Q169.85-21.65 170.42-21 171-20.35 171-18.95L171-18.95ZM225.53-0.1Q226.88 0.85 227.35 2 227.83 3.15 227.83 5.2L227.83 5.2Q227.83 6.2 227.25 7.2 226.68 8.2 226.08 8.65L226.08 8.65Q221.33 11.25 216.58 11.25L216.58 11.25Q214.23 11.25 212.53 10.65 210.83 10.05 209.33 9.05L209.33 9.05Q208.33 8.3 207.7 6.98 207.08 5.65 207.08 4.35L207.08 4.35Q207.08 2.55 208.2 1.2 209.33-0.15 211.23-0.75L211.23-0.75Q210.88-1.5 210.88-2.5L210.88-2.5Q210.88-3.45 212.28-5.35L212.28-5.35Q209.88-6.15 208.5-8.2 207.13-10.25 207.13-13L207.13-13Q207.13-14.7 207.93-16.03 208.73-17.35 210.33-19.1L210.33-19.1Q211.43-20.3 213.13-20.85 214.83-21.4 217.38-21.4L217.38-21.4Q219.18-21.4 221.83-20.6L221.83-20.6Q224.98-22.8 227.38-22.8L227.38-22.8Q227.98-22.8 228.75-22.5 229.53-22.2 229.93-21.9L229.93-21.9Q230.23-21.35 230.23-20.05L230.23-20.05Q230.23-19.55 229.8-19.07 229.38-18.6 228.73-18.6L228.73-18.6 227.53-18.65Q226.63-18.75 226.13-18.75L226.13-18.75Q225.58-18.75 224.48-18.65L224.48-18.65Q225.53-17.4 226.1-16 226.68-14.6 226.68-12.35L226.68-12.35Q226.68-10.65 225.43-8.8 224.18-6.95 222.48-5.9L222.48-5.9Q219.88-4.5 216.43-4.45L216.43-4.45Q216.03-4.05 215.75-3.73 215.48-3.4 215.48-3.2L215.48-3.2Q215.48-2.65 216.43-2.35 217.38-2.05 219.33-1.9L219.33-1.9Q220.83-1.8 222.65-1.28 224.48-0.75 225.53-0.1L225.53-0.1ZM216.73-8.55Q219.03-8.55 220.43-9.8 221.83-11.05 221.83-13.35L221.83-13.35Q221.83-15.1 220.58-16.2 219.33-17.3 217.38-17.3L217.38-17.3Q216.13-17.3 214.7-16.88 213.28-16.45 212.68-15.55L212.68-15.55Q212.38-15.15 212.08-14.03 211.78-12.9 211.78-12.3L211.78-12.3Q211.78-11.45 212.5-10.58 213.23-9.7 214.4-9.13 215.58-8.55 216.73-8.55L216.73-8.55ZM219.88 2.3Q217.13 2.05 216 1.83 214.88 1.6 214.18 1.3L214.18 1.3Q211.63 2.65 211.63 4.25L211.63 4.25Q211.63 5.75 213.18 6.53 214.73 7.3 216.73 7.3L216.73 7.3Q217.63 7.3 219.18 7.1 220.73 6.9 221.78 6.4L221.78 6.4Q222.48 6.05 222.83 5.73 223.18 5.4 223.18 4.55L223.18 4.55Q223.18 3.5 222.08 2.95 220.98 2.4 219.88 2.3L219.88 2.3ZM269.41-31.7Q269.41-30.4 269.36-28.68 269.31-26.95 269.26-26.05L269.26-26.05Q269.11-23.5 269.11-20.95L269.11-20.95Q269.11-19.05 269.26-17L269.26-17Q270.81-19.25 272.61-20.3 274.41-21.35 276.96-21.35L276.96-21.35Q278.81-21.35 280.41-19.7 282.01-18.05 282.46-15.85L282.46-15.85Q282.61-13.9 282.61-11.1L282.61-11.1Q282.61-9.3 282.81-6.4L282.81-6.4Q282.91-5.3 283.39-4.35 283.86-3.4 284.76-3.4L284.76-3.4Q285.21-3.4 285.49-3.45 285.76-3.5 286.01-3.5L286.01-3.5Q286.71-3.5 286.99-3.15 287.26-2.8 287.26-2.15L287.26-2.15Q287.26-0.95 286.06-0.35 284.86 0.25 283.86 0.25L283.86 0.25Q280.26 0.25 278.91-2.75L278.91-2.75Q278.16-4.45 277.96-7.18 277.76-9.9 277.76-13.55L277.76-13.55Q277.76-17.15 275.31-17.15L275.31-17.15Q273.96-17.15 272.59-15.73 271.21-14.3 270.31-11.98 269.41-9.65 269.41-7.15L269.41-7.15 269.46-1.95Q269.46-0.85 268.61-0.33 267.76 0.2 267.01 0.2L267.01 0.2Q265.91 0.2 265.01-0.48 264.11-1.15 264.11-2L264.11-2Q264.46-5.75 264.46-14.55L264.46-14.55Q264.46-16.15 264.21-26.4L264.21-26.4 264.06-31Q264.06-32.1 265.06-32.93 266.06-33.75 267.31-33.75L267.31-33.75Q268.41-33.75 268.91-33.25 269.41-32.75 269.41-31.7L269.41-31.7ZM322.89-17.1L320.49-17.3Q319.79-17.4 319.37-17.9 318.94-18.4 318.94-19.1L318.94-19.1Q318.94-19.45 319.12-19.85 319.29-20.25 319.64-20.55L319.64-20.55Q320.29-21.2 323.14-21.2L323.14-21.2Q323.54-23.15 323.54-25.15L323.54-25.15Q323.54-25.9 323.49-26.45 323.44-27 323.44-27.3L323.44-27.3Q323.44-28.4 324.27-28.95 325.09-29.5 326.14-29.5L326.14-29.5Q327.44-29.5 327.92-28.85 328.39-28.2 328.39-26.45L328.39-26.45Q328.39-23.85 327.94-21.35L327.94-21.35Q328.74-21.35 330.14-21.45L330.14-21.45Q332.04-21.55 332.89-21.55L332.89-21.55Q333.74-21.55 334.37-21.13 334.99-20.7 334.99-19.95L334.99-19.95Q334.99-18 333.24-17.65L333.24-17.65Q331.39-17.2 327.49-17.1L327.49-17.1Q327.34-15.15 327.34-12.85L327.34-12.85Q327.34-9.25 327.79-6.95L327.79-6.95Q328.09-5.35 328.82-4.63 329.54-3.9 330.99-3.9L330.99-3.9Q331.84-3.9 332.74-4.35L332.74-4.35Q333.34-4.7 333.84-4.7L333.84-4.7Q334.54-4.7 334.87-4.25 335.19-3.8 335.19-3.05L335.19-3.05Q335.19-1.65 333.69-0.73 332.19 0.2 329.84 0.2L329.84 0.2Q328.39 0.2 326.92-0.5 325.44-1.2 324.44-2.25L324.44-2.25Q324.29-2.4 323.89-3.4 323.49-4.4 323.19-5.55L323.19-5.55Q322.69-7.9 322.69-12.15L322.69-12.15Q322.69-14 322.89-17.1L322.89-17.1ZM420.01-27.6Q419.86-24.4 419.86-21.45L419.86-21.45Q419.86-18.4 420.26-12.5L420.26-12.5Q420.31-11.6 420.46-8.88 420.61-6.15 420.61-3.9L420.61-3.9Q421.11-3.95 421.68-4.05 422.26-4.15 422.56-4.15L422.56-4.15Q423.66-4.15 424.31-3.6 424.96-3.05 424.96-1.9L424.96-1.9Q424.96-1.15 424.36-0.75 423.76-0.35 422.28-0.18 420.81 0 418.01 0L418.01 0Q414.91 0 413.36-0.2 411.81-0.4 411.21-0.98 410.61-1.55 410.61-2.7L410.61-2.7Q410.61-3.55 411.16-3.85 411.71-4.15 412.71-4.15L412.71-4.15 413.76-4.1 415.41-4 415.16-9.9Q414.86-14.7 414.86-18.7L414.86-18.7Q414.86-20.85 415.01-24.6L415.01-24.6 415.11-27.35Q413.41-27.25 412.46-27.25L412.46-27.25Q411.36-27.25 410.98-27.65 410.61-28.05 410.61-29.3L410.61-29.3Q410.61-30.7 412.53-31.1 414.46-31.5 418.41-31.5L418.41-31.5Q421.46-31.5 422.98-31.3 424.51-31.1 424.51-30.4L424.51-30.4Q424.51-28.7 423.78-28.18 423.06-27.65 421.01-27.65L421.01-27.65 420.01-27.6ZM482.69-3.85Q482.94-3.75 483.49-3.6 484.04-3.45 484.29-3.3 484.54-3.15 484.54-2.85L484.54-2.85Q484.59-1.65 483.67-0.88 482.74-0.1 481.49-0.1L481.49-0.1Q479.54-0.1 478.44-1.15 477.34-2.2 476.84-4.35L476.84-4.35Q476.64-5.2 476.64-6.7L476.64-6.7Q476.64-7.55 476.74-9.45L476.74-9.45Q476.84-11.45 476.84-12.65L476.84-12.65Q476.84-14.4 475.87-15.73 474.89-17.05 473.14-17.05L473.14-17.05Q472.09-17.05 470.94-16.43 469.79-15.8 469.34-14.9L469.34-14.9Q468.59-13.45 468.29-11.75L468.29-11.75Q467.74-8.75 467.74-5.5L467.74-5.5Q467.74-3.95 467.79-3.1L467.79-3.1Q467.79-2.9 467.82-2.33 467.84-1.75 467.72-1.28 467.59-0.8 467.29-0.4L467.29-0.4Q467.04-0.15 466.52 0.03 465.99 0.2 465.54 0.2L465.54 0.2Q464.84 0.2 463.79-0.4 462.74-1 462.59-1.75L462.59-1.75 462.54-2.6Q462.54-3.05 462.64-3.65L462.64-3.65Q463.24-7.15 463.24-9.75L463.24-9.75Q463.24-10.9 463.19-11.55L463.19-11.55 463.14-13.9Q463.14-15.1 462.54-16.23 461.94-17.35 461.14-17.35L461.14-17.35Q460.89-17.35 460.44-17.18 459.99-17 459.69-17L459.69-17Q459.19-17 458.62-17.5 458.04-18 458.04-18.55L458.04-18.55Q458.04-19.6 458.74-20.25L458.74-20.25Q459.49-20.85 460.22-21.2 460.94-21.55 461.89-21.55L461.89-21.55Q462.69-21.55 463.19-21.4 463.69-21.25 464.54-20.75L464.54-20.75Q464.99-20.5 465.59-19.65 466.19-18.8 466.59-17.25L466.59-17.25Q467.89-19.65 469.82-20.63 471.74-21.6 474.74-21.6L474.74-21.6Q475.89-21.6 477.22-20.85 478.54-20.1 479.49-19.1L479.49-19.1Q480.39-18 480.99-16.38 481.59-14.75 481.59-13.45L481.59-13.45Q481.59-12.7 481.49-11L481.49-11Q481.34-9.65 481.34-8.15L481.34-8.15Q481.34-4.65 482.69-3.85L482.69-3.85ZM581.31-6.8Q582.26-6.8 582.73-6.08 583.21-5.35 583.21-4.5L583.21-4.5Q583.21-3.45 582.88-3.03 582.56-2.6 581.66-2.15L581.66-2.15Q579.56-1.15 576.46-0.55 573.36 0.05 569.81 0.05L569.81 0.05Q565.36 0.05 563.28-1.45 561.21-2.95 560.73-5.08 560.26-7.2 560.26-10.65L560.26-10.65Q560.26-14.35 560.56-17.93 560.86-21.5 561.61-27.05L561.61-27.05Q561.96-29.45 563.51-30.53 565.06-31.6 566.91-31.6L566.91-31.6Q568.46-31.6 571.96-31.7L571.96-31.7 576.31-31.75Q579.01-31.75 580.21-31.6L580.21-31.6Q581.71-31.3 582.43-30.93 583.16-30.55 583.16-29.65L583.16-29.65Q583.16-28.65 582.48-27.7 581.81-26.75 580.46-26.75L580.46-26.75Q578.91-26.75 576.01-26.95L576.01-26.95Q573.11-27.15 571.66-27.15L571.66-27.15Q570.41-27.15 569.21-27L569.21-27Q567.81-26.9 567.21-26.65 566.61-26.4 566.51-25.8L566.51-25.8Q565.81-20.65 565.81-18.2L565.81-18.2Q566.96-18.05 568.06-18.05L568.06-18.05Q569.46-18.05 571.06-18.2 572.66-18.35 573.11-18.4L573.11-18.4Q575.76-18.65 577.66-18.65L577.66-18.65Q578.76-18.65 579.33-18.25 579.91-17.85 579.91-17.15L579.91-17.15Q579.91-16.05 579.33-15.45 578.76-14.85 577.31-14.55L577.31-14.55Q575.56-14.2 572.98-14 570.41-13.8 567.96-13.8L567.96-13.8Q567.11-13.8 565.61-13.9L565.61-13.9Q565.46-10.85 565.46-8.25L565.46-8.25Q565.46-4.7 570.16-4.7L570.16-4.7Q572.66-4.7 574.31-5.05 575.96-5.4 578.11-6.05L578.11-6.05Q580.11-6.8 581.31-6.8L581.31-6.8ZM629.29-12.85Q629.44-13.25 630.36-15.75 631.29-18.25 632.09-19.55L632.09-19.55Q633.39-21.6 634.39-21.6L634.39-21.6Q635.79-21.6 636.54-21.08 637.29-20.55 637.29-19.6L637.29-19.6Q637.29-19.15 636.91-18.35 636.54-17.55 636.49-17.4L636.49-17.4Q634.49-13 632.89-7.95L632.89-7.95 631.84-4.05Q631.24-2.15 629.79-0.98 628.34 0.2 626.39 0.2L626.39 0.2Q624.64 0.2 623.14-1.4L623.14-1.4Q622.24-2.8 621.26-4.95 620.29-7.1 619.59-9.15L619.59-9.15 617.84-14.4Q617.29-15.95 616.96-17.05 616.64-18.15 616.64-19.05L616.64-19.05Q616.59-20.1 617.24-20.75 617.89-21.4 619.04-21.4L619.04-21.4Q620.34-21.4 620.89-20.88 621.44-20.35 621.89-19.25L621.89-19.25Q622.09-18.1 622.99-14.55L622.99-14.55 623.34-13.15Q623.79-11.45 624.49-9.7 625.19-7.95 625.89-6.35L625.89-6.35Q625.79-6.6 626.59-4.7L626.59-4.7Q627.09-6.15 627.74-8.25L627.74-8.25 629.29-12.85ZM670.67-10.6Q670.67-12.5 671.37-14.43 672.07-16.35 673.22-17.95L673.22-17.95Q674.37-19.55 676.87-20.58 679.37-21.6 681.32-21.6L681.32-21.6Q683.32-21.6 685.4-21.05 687.47-20.5 688.27-19.35L688.27-19.35Q690.12-16.75 690.12-14.25L690.12-14.25Q690.12-12.9 689.55-11.95 688.97-11 687.92-9.9L687.92-9.9Q687.07-9 685.25-8.7 683.42-8.4 681.62-8.4L681.62-8.4Q680.47-8.4 678.82-8.63 677.17-8.85 675.62-9.2L675.62-9.2Q675.72-8.2 676.12-7.25 676.52-6.3 677.07-5.8L677.07-5.8Q678.07-4.85 679.15-4.6 680.22-4.35 681.92-4.35L681.92-4.35Q683.72-4.35 685.27-4.95L685.27-4.95Q686.52-5.4 687.32-5.4L687.32-5.4Q688.27-5.4 688.77-4.83 689.27-4.25 689.27-3.35L689.27-3.35Q689.27-2.1 687.82-1.3 686.37-0.5 684.5-0.13 682.62 0.25 681.47 0.25L681.47 0.25Q679.12 0.25 676.92-0.6 674.72-1.45 673.27-3L673.27-3Q672.07-4.4 671.37-6.38 670.67-8.35 670.67-10.6L670.67-10.6ZM681.57-17.35Q680.47-17.35 679.37-16.93 678.27-16.5 677.57-15.75L677.57-15.75Q676.67-14.8 676.35-14.23 676.02-13.65 675.92-12.65L675.92-12.65Q677.17-12.25 681.12-12.25L681.12-12.25Q683.27-12.25 684.45-12.9 685.62-13.55 685.62-14.6L685.62-14.6Q685.62-15.65 684.32-16.5 683.02-17.35 681.57-17.35L681.57-17.35ZM732.55-2Q732.55-1.15 731.9-0.5 731.25 0.15 730.3 0.15L730.3 0.15Q728.8 0.15 728.1-0.43 727.4-1 727.4-2.55L727.4-2.55Q727.4-4.4 727.3-7.4L727.3-7.4Q727.2-9.9 727.2-11.6L727.2-11.6Q727.2-12.4 727.3-13.7L727.3-13.7Q727.4-14.9 727.4-15.5L727.4-15.5Q727.25-16.45 726.65-17.07 726.05-17.7 725.1-17.7L725.1-17.7Q724.65-17.7 724.35-18.13 724.05-18.55 724.05-19L724.05-19Q724.05-20.15 724.98-20.75 725.9-21.35 727.2-21.35L727.2-21.35Q729.9-21.35 730.95-18.15L730.95-18.15Q732.25-19.65 733.93-20.58 735.6-21.5 737.15-21.5L737.15-21.5Q739-21.5 740.53-20.5 742.05-19.5 742.05-17.8L742.05-17.8Q742.05-16.85 741.23-15.85 740.4-14.85 739.55-14.85L739.55-14.85Q739.1-14.85 738.78-15.08 738.45-15.3 738-15.75L738-15.75Q737.5-16.25 737.15-16.48 736.8-16.7 736.35-16.7L736.35-16.7Q735.55-16.7 734.85-16.45 734.15-16.2 733.9-15.85L733.9-15.85Q733.1-14.6 732.73-13.6 732.35-12.6 732.35-11.45L732.35-11.45Q732.35-10.6 732.3-10.1L732.3-10.1 732.25-7.25Q732.25-6.6 732.3-5.8 732.35-5 732.4-4.6L732.4-4.6Q732.55-3.25 732.55-2L732.55-2ZM780.69 10.2Q778.79 10.2 777.51 9.58 776.24 8.95 775.61 8.08 774.99 7.2 774.99 6.55L774.99 6.55Q774.99 5.7 775.59 5.23 776.19 4.75 777.04 4.75L777.04 4.75Q777.54 4.75 777.99 5.05 778.44 5.35 778.49 5.4L778.49 5.4Q778.84 5.65 779.19 5.83 779.54 6 779.94 6L779.94 6Q781.04 6 781.74 4.55 782.44 3.1 783.14-0.15L783.14-0.15Q780.89-3.45 779.39-6.75L779.39-6.75 778.24-9.4Q777.99-10 776.86-12.53 775.74-15.05 774.64-17L774.64-17Q773.94-18.4 773.94-18.9L773.94-18.9Q773.94-20.15 774.81-20.75 775.69-21.35 776.84-21.35L776.84-21.35Q777.64-21.35 778.06-21.03 778.49-20.7 779.04-19.85L779.04-19.85Q780.49-17.45 782.19-12.65L782.19-12.65Q783.19-9.9 783.79-8.47 784.39-7.05 785.24-5.6L785.24-5.6Q786.09-7.55 787.39-12.25L787.39-12.25Q788.19-14.95 788.71-16.57 789.24-18.2 789.89-19.55L789.89-19.55Q790.34-20.45 791.01-21 791.69-21.55 792.54-21.55L792.54-21.55Q793.39-21.55 794.36-20.93 795.34-20.3 795.34-19.45L795.34-19.45Q795.34-18.95 794.99-18.25L794.99-18.25Q793.04-13.75 791.56-9.78 790.09-5.8 788.74-1.05L788.74-1.05Q787.94 1.6 787.06 4 786.19 6.4 785.84 6.95L785.84 6.95Q784.84 8.35 783.59 9.28 782.34 10.2 780.69 10.2L780.69 10.2ZM890.9-16.9Q894.55-16.45 896.32-14.58 898.1-12.7 898.1-9.95L898.1-9.95Q898.1-7.2 896.07-4.75 894.05-2.3 890.9-0.95L890.9-0.95Q889.5-0.4 887.22-0.15 884.95 0.1 882.55 0.1L882.55 0.1Q878.55 0.1 874.35-0.65L874.35-0.65Q873.6-0.8 872.77-1.4 871.95-2 871.95-3.15L871.95-3.15Q871.9-7.75 871.6-15.95L871.6-15.95 871.55-18.7Q871.35-25.1 871.35-28.75L871.35-28.75Q871.35-29.4 872.12-30.28 872.9-31.15 874-31.25L874-31.25Q874.65-31.25 875.25-31.3L875.25-31.3Q880.9-31.85 882.8-31.85L882.8-31.85Q886.55-31.85 889.42-31.13 892.3-30.4 894.2-28.5L894.2-28.5Q894.9-27.7 895.35-26.48 895.8-25.25 895.8-24.1L895.8-24.1Q895.85-21.65 894.52-19.6 893.2-17.55 890.9-16.9L890.9-16.9ZM883.1-27.6Q881.4-27.6 879.57-27.4 877.75-27.2 876.5-26.9L876.5-26.9 876.8-17.45 878.6-17.5Q882.95-17.95 885-18.25L885-18.25Q886.3-18.55 887.55-19.43 888.8-20.3 889.62-21.28 890.45-22.25 890.45-22.75L890.45-22.75Q890.45-23.5 890.15-24.28 889.85-25.05 889.5-25.4L889.5-25.4Q888.15-26.7 886.75-27.15 885.35-27.6 883.1-27.6L883.1-27.6ZM876.95-4.3Q879.5-3.95 881.8-3.95L881.8-3.95Q886.85-3.95 889.77-5.28 892.7-6.6 892.7-10.35L892.7-10.35Q892.7-11.85 890.45-12.85 888.2-13.85 885.6-13.85L885.6-13.85Q883.85-13.85 881.15-13.45L881.15-13.45Q879-13.15 876.95-13.05L876.95-13.05Q877.05-10.05 877.05-9.25L877.05-9.25Q877.05-7.7 877-6.9L877-6.9 876.95-4.3ZM935.48-32.1Q937.23-31.95 938.53-31.18 939.83-30.4 939.83-28.85L939.83-28.85Q939.83-27.7 938.76-27.03 937.68-26.35 936.18-26.35L936.18-26.35Q934.73-26.35 934.18-27.1 933.63-27.85 933.63-28.65L933.63-28.65Q933.63-30.15 933.96-31.15 934.28-32.15 935.48-32.1L935.48-32.1ZM939.48-18.95L939.48-9.95 939.48-8.5Q939.48-6.55 939.61-4.83 939.73-3.1 939.93-1.35L939.93-1.35Q939.88-0.85 939.18-0.33 938.48 0.2 937.93 0.2L937.93 0.2Q936.98 0.2 936.01-0.18 935.03-0.55 934.83-1.1L934.83-1.1Q934.53-2.7 934.53-3.95L934.53-3.95Q934.53-8.05 934.28-13.15L934.28-13.15Q934.08-17.65 934.08-19.45L934.08-19.45Q934.08-20.35 934.98-21 935.88-21.65 936.88-21.65L936.88-21.65Q938.33-21.65 938.91-21 939.48-20.35 939.48-18.95L939.48-18.95ZM978.36-17.1L975.96-17.3Q975.26-17.4 974.84-17.9 974.41-18.4 974.41-19.1L974.41-19.1Q974.41-19.45 974.59-19.85 974.76-20.25 975.11-20.55L975.11-20.55Q975.76-21.2 978.61-21.2L978.61-21.2Q979.01-23.15 979.01-25.15L979.01-25.15Q979.01-25.9 978.96-26.45 978.91-27 978.91-27.3L978.91-27.3Q978.91-28.4 979.74-28.95 980.56-29.5 981.61-29.5L981.61-29.5Q982.91-29.5 983.39-28.85 983.86-28.2 983.86-26.45L983.86-26.45Q983.86-23.85 983.41-21.35L983.41-21.35Q984.21-21.35 985.61-21.45L985.61-21.45Q987.51-21.55 988.36-21.55L988.36-21.55Q989.21-21.55 989.84-21.13 990.46-20.7 990.46-19.95L990.46-19.95Q990.46-18 988.71-17.65L988.71-17.65Q986.86-17.2 982.96-17.1L982.96-17.1Q982.81-15.15 982.81-12.85L982.81-12.85Q982.81-9.25 983.26-6.95L983.26-6.95Q983.56-5.35 984.29-4.63 985.01-3.9 986.46-3.9L986.46-3.9Q987.31-3.9 988.21-4.35L988.21-4.35Q988.81-4.7 989.31-4.7L989.31-4.7Q990.01-4.7 990.34-4.25 990.66-3.8 990.66-3.05L990.66-3.05Q990.66-1.65 989.16-0.73 987.66 0.2 985.31 0.2L985.31 0.2Q983.86 0.2 982.39-0.5 980.91-1.2 979.91-2.25L979.91-2.25Q979.76-2.4 979.36-3.4 978.96-4.4 978.66-5.55L978.66-5.55Q978.16-7.9 978.16-12.15L978.16-12.15Q978.16-14 978.36-17.1L978.36-17.1ZM1024.6-10.6Q1024.6-12.5 1025.3-14.43 1026-16.35 1027.15-17.95L1027.15-17.95Q1028.3-19.55 1030.8-20.58 1033.3-21.6 1035.25-21.6L1035.25-21.6Q1037.25-21.6 1039.32-21.05 1041.4-20.5 1042.2-19.35L1042.2-19.35Q1044.05-16.75 1044.05-14.25L1044.05-14.25Q1044.05-12.9 1043.47-11.95 1042.9-11 1041.85-9.9L1041.85-9.9Q1041-9 1039.17-8.7 1037.35-8.4 1035.55-8.4L1035.55-8.4Q1034.4-8.4 1032.75-8.63 1031.1-8.85 1029.55-9.2L1029.55-9.2Q1029.65-8.2 1030.05-7.25 1030.45-6.3 1031-5.8L1031-5.8Q1032-4.85 1033.07-4.6 1034.15-4.35 1035.85-4.35L1035.85-4.35Q1037.65-4.35 1039.2-4.95L1039.2-4.95Q1040.45-5.4 1041.25-5.4L1041.25-5.4Q1042.2-5.4 1042.7-4.83 1043.2-4.25 1043.2-3.35L1043.2-3.35Q1043.2-2.1 1041.75-1.3 1040.3-0.5 1038.42-0.13 1036.55 0.25 1035.4 0.25L1035.4 0.25Q1033.05 0.25 1030.85-0.6 1028.65-1.45 1027.2-3L1027.2-3Q1026-4.4 1025.3-6.38 1024.6-8.35 1024.6-10.6L1024.6-10.6ZM1035.5-17.35Q1034.4-17.35 1033.3-16.93 1032.2-16.5 1031.5-15.75L1031.5-15.75Q1030.6-14.8 1030.27-14.23 1029.95-13.65 1029.85-12.65L1029.85-12.65Q1031.1-12.25 1035.05-12.25L1035.05-12.25Q1037.2-12.25 1038.37-12.9 1039.55-13.55 1039.55-14.6L1039.55-14.6Q1039.55-15.65 1038.25-16.5 1036.95-17.35 1035.5-17.35L1035.5-17.35Z" opacity="1" transform="matrix(1,0,0,1,0,0)" fill="#4b2929" class="slogan-text-1" data-fill-palette-color="secondary" id="text-1"></path></svg></g></svg></g></svg></g></svg></g><g transform="matrix(1,0,0,1,107.13462476895721,0)"><svg viewBox="0 0 181.2507504620855 163.5370291598884" height="163.5370291598884" width="181.2507504620855"><g><svg xmlns="http://www.w3.org/2000/svg" xmlns:xlink="http://www.w3.org/1999/xlink" version="1.1" x="0" y="0" viewBox="4.826999999999997 10.958999999999996 90.944 82.05600000000001" enable-background="new 0 0 100 100" xml:space="preserve" height="163.5370291598884" width="181.2507504620855" class="icon-icon-0" data-fill-palette-color="accent" id="icon-0"><path fill="#6f4040" d="M49.837 62.691l-6.626-0.168-1.023-2.824 2.811-0.719 0.245 1.512-0.734 0.322-0.167-0.871-0.9 0.289 0.551 1.252 6.533-0.183L49.837 62.691zM34.365 53.299c-0.534 0.131-0.336 0.932 0.197 0.799 0.367-0.09 1.051 0.344 1.582 1.318-0.134 0.164-0.173 0.447-0.08 0.766 0.141 0.492 0.545 0.902 0.896 0.875 0.773-0.061 0.279-1.211 0.232-1.319C36.624 54.283 35.507 53.018 34.365 53.299zM66.536 53.299c-1.142-0.281-2.258 0.984-2.83 2.438-0.047 0.108-0.54 1.26 0.233 1.319 0.352 0.027 0.755-0.383 0.896-0.875 0.092-0.317 0.054-0.602-0.08-0.766 0.531-0.975 1.213-1.408 1.583-1.318C66.873 54.23 67.07 53.43 66.536 53.299zM56.486 51.84c-2.234 0.096-3.155 1.697-3.193 1.766-0.109 0.199-0.039 0.447 0.158 0.56 0.195 0.11 0.447 0.043 0.561-0.154 0.023-0.041 0.477-0.801 1.521-1.161-0.084 0.164-0.135 0.35-0.135 0.549 0 0.655 0.533 1.188 1.191 1.188 0.657 0 1.19-0.533 1.19-1.188 0-0.232-0.066-0.447-0.183-0.631 1.275 0.313 1.749 1.235 1.771 1.282 0.07 0.146 0.218 0.234 0.373 0.234 0.06 0 0.119-0.013 0.177-0.041 0.205-0.099 0.293-0.343 0.194-0.55C60.078 53.613 59.148 51.725 56.486 51.84zM47.738 51.129c0.937 0.381 1.506-1.023 0.57-1.404-1.615-0.656-3.463-0.836-5.369-0.387-1.264 0.297-2.402 0.84-3.363 1.556-0.811 0.604 0.094 1.819 0.904 1.214 0.795-0.592 1.744-1.044 2.81-1.296C44.885 50.436 46.411 50.59 47.738 51.129zM43.124 53.396c0 0.655 0.533 1.188 1.19 1.188s1.19-0.533 1.19-1.188c0-0.199-0.049-0.386-0.135-0.549 1.043 0.358 1.496 1.116 1.521 1.161 0.111 0.197 0.363 0.269 0.562 0.156 0.198-0.111 0.271-0.361 0.159-0.562-0.039-0.067-0.961-1.67-3.193-1.766-2.666-0.111-3.591 1.773-3.629 1.854-0.1 0.207-0.011 0.451 0.193 0.55 0.058 0.028 0.117 0.041 0.178 0.041 0.154 0 0.303-0.089 0.373-0.234 0.005-0.014 0.478-0.961 1.771-1.282C43.189 52.949 43.124 53.164 43.124 53.396zM56.562 63.59c-0.314 0.127-0.612 0.229-0.91 0.311-0.012 0.015-0.025 0.027-0.041 0.041-1.812 1.677-2.107 2.627-5.076 2.63-2.971-0.003-3.26-0.953-5.071-2.63-0.016-0.014-0.028-0.028-0.043-0.043-0.294-0.084-0.591-0.184-0.905-0.309-0.509-0.205-0.201-0.971 0.309-0.766 1.091 0.438 1.929 0.543 3.593 0.596 0 0 0.86 0.039 2.121 0.047 1.265-0.008 2.129-0.047 2.129-0.047 1.663-0.053 2.5-0.156 3.591-0.596C56.768 62.619 57.074 63.385 56.562 63.59zM54.219 64.156c-0.447 0.045-0.939 0.07-1.522 0.088-0.07 0.004-0.927 0.041-2.154 0.047-1.283-0.006-2.16-0.047-2.16-0.047-0.583-0.018-1.075-0.043-1.524-0.088 0.295 0.299 0.55 0.561 0.819 0.781 0.441 0.258 1.622 0.412 2.854 0.42 1.241-0.008 2.441-0.166 2.877-0.426C53.673 64.713 53.928 64.453 54.219 64.156zM47.779 59.232c-0.096 0.069-0.146 0.125-0.146 0.125-0.371 0.405 0.236 0.965 0.606 0.559 0.208-0.152 0.391-0.109 0.604 0.051 0.044 0.033 0.088 0.064 0.146 0.102 0.485 0.371 0.878 0.753 1.557 0.753 0.681 0 1.066-0.382 1.552-0.753 0.025-0.018 0.047-0.036 0.065-0.059l0.058-0.043c0.183-0.135 0.392-0.209 0.604-0.051 0.372 0.406 0.979-0.152 0.606-0.559-0.436-0.496-1.203-0.429-1.705-0.049-0.211 0.159-0.459 0.271-1.199 0.271-0.739 0-0.974-0.109-1.188-0.271C48.857 58.947 48.266 58.877 47.779 59.232zM55.83 60.492l0.732 0.322 0.168-0.871 0.9 0.289-0.551 1.252-6.533-0.183 0.688 1.39 6.625-0.168 1.023-2.824-2.81-0.719L55.83 60.492zM61.316 50.894c-0.961-0.716-2.102-1.259-3.365-1.556-1.905-0.449-3.752-0.27-5.367 0.387-0.936 0.381-0.366 1.785 0.571 1.404 1.327-0.539 2.853-0.693 4.446-0.317 1.064 0.252 2.016 0.704 2.81 1.296C61.223 52.713 62.127 51.496 61.316 50.894zM52.395 68.348c-1.136-0.168-2.58-0.168-3.716 0.002-0.225 0.033-0.38 0.242-0.346 0.469 0.03 0.203 0.206 0.353 0.407 0.353 0.02 0 0.041-0.002 0.062-0.004 1.056-0.158 2.414-0.158 3.472-0.002 0.226 0.033 0.437-0.121 0.47-0.347C52.775 68.592 52.62 68.383 52.395 68.348zM95.771 38.879c0 0.051-0.011 0.1-0.025 0.146l-3.085 8.227c-1.412 5.055-11.745 9.303-26.008 11.174-0.62 0.977-1.219 1.652-1.883 1.992-0.491 0.25-0.994 0.303-1.519 0.189l-0.052 0.391c-0.154 1.121-0.439 2.162-0.799 3.15-0.629 1.834-1.506 3.274-2.549 4.393-0.019 0.104-0.039 0.225-0.064 0.367-0.086 0.459-0.171 0.928-0.276 1.389-0.06 0.248-0.122 0.504-0.188 0.756-0.002 0.012-0.007 0.025-0.009 0.037-0.056 0.209-0.131 0.416-0.224 0.621l1.302 3.781c0.022 0.066 0.028 0.135 0.017 0.203L58.7 85.654c-0.027 0.16-0.147 0.289-0.306 0.328-0.033 0.01-0.067 0.014-0.103 0.014-0.125 0-0.243-0.057-0.323-0.156l-6.048-7.631 5.581 13.689-6.678 1.117L50.58 81.854l-0.684 9.02-5.492-1.92 4.901-10.928-6.194 7.813c-0.078 0.101-0.198 0.156-0.322 0.156-0.035 0-0.069-0.004-0.104-0.015-0.156-0.039-0.275-0.168-0.304-0.328l-1.711-9.959c-0.011-0.067-0.005-0.137 0.017-0.202l1.303-3.781c0.001-0.002 0.003-0.004 0.004-0.006-0.094-0.205-0.167-0.408-0.221-0.615-0.004-0.012-0.008-0.024-0.01-0.037-0.063-0.243-0.128-0.498-0.188-0.756-0.107-0.463-0.208-0.932-0.277-1.389-0.006-0.05-0.012-0.093-0.018-0.136-1.146-1.147-2.104-2.659-2.777-4.625-0.357-0.987-0.645-2.028-0.799-3.149l-0.051-0.394c-0.524 0.115-1.029 0.062-1.522-0.188-0.655-0.334-1.246-0.996-1.856-1.953-13.805-1.773-23.984-5.764-26.076-10.564-0.025-0.033-0.049-0.068-0.063-0.111l-3.284-8.764c-0.019-0.047-0.025-0.096-0.025-0.146 0-1.854 0.974-3.797 2.816-5.623 4.316-4.275 14.291-8.73 30.256-10.18-0.006-0.055 0-0.115 0.02-0.17 2.22-6.312 5.266-12.144 12.494-11.939h0.01c0.111-0.004 0.232-0.006 0.354-0.006 6.969 0 9.947 5.74 12.13 11.945 0.021 0.062 0.028 0.129 0.02 0.19 15.833 1.469 25.732 5.902 30.03 10.158C94.796 35.082 95.771 37.025 95.771 38.879zM5.855 37.488l3.785 1.146 0.683-5.512 5.049 2.053 1.465-5.877 5.493 3.592 1.994-6.049 5.074 4.525 3.062-6.193 4.839 5.246 3.965-6.18 4.869 5.479 4.319-5.812 4.358 5.813 4.871-5.479 3.965 6.18 4.838-5.246 3.062 6.193 5.074-4.525 1.994 6.049 5.494-3.592 1.465 5.877 5.05-2.053 0.681 5.516 3.463-1.039c-0.335-1.242-1.146-2.521-2.396-3.758-2.966-2.936-8.289-5.557-14.99-7.381-7.574-2.062-16.855-3.113-26.874-3.039-0.016 0.002-0.034 0.004-0.051 0.004h-0.321c-0.018 0-0.035-0.002-0.052-0.004-10.012-0.074-19.298 0.977-26.873 3.039-6.701 1.824-12.024 4.445-14.99 7.381C7.009 35.041 6.21 36.281 5.855 37.488zM49.691 76.209c-3.276-0.268-5.867-1.801-7.15-3.566l-1.038 3.021 1.535 8.942L49.691 76.209zM58.507 70.916c0.002-0.014 0.004-0.027 0.009-0.041 0.068-0.254 0.133-0.51 0.191-0.764 0.049-0.207 0.093-0.418 0.135-0.631-1.549 1.26-3.361 1.967-5.247 2.299-0.2 0.037-0.293 0.084-0.354 0.123-0.846 0.539-1.266 0.57-2.367 0.57-0.151 0-0.688 0-0.839 0-1.103 0-1.521-0.031-2.366-0.57-0.062-0.039-0.155-0.086-0.355-0.123-1.797-0.316-3.529-0.976-5.029-2.125 0.031 0.154 0.062 0.305 0.098 0.457 0.062 0.262 0.125 0.52 0.192 0.764 0.003 0.014 0.005 0.027 0.008 0.041 0.603 2.174 3.728 4.445 7.952 4.51 0.004 0 0.008 0.002 0.012 0.002 0.005 0 0.009-0.002 0.012-0.002C54.779 75.361 57.904 73.09 58.507 70.916zM58.542 72.648c-1.284 1.764-3.877 3.297-7.153 3.561l6.654 8.396 1.536-8.943L58.542 72.648zM66.742 51.824l-0.043-0.014c-0.732-0.232-1.612 0.225-2.526 1.215-0.647 0.699-1.299 2.045-1.338 2.098-0.079 0.105-0.203 0.166-0.331 0.166-0.055 0-0.109-0.014-0.164-0.035-0.175-0.076-0.273-0.266-0.24-0.453 0.014-0.072 1.133-6.551-2.127-10.729l-8.834 3.951c-0.055 0.023-0.111 0.035-0.169 0.035-0.13 0-0.256-0.062-0.335-0.174-0.113-0.16-0.1-0.379 0.034-0.521l3.573-3.814c-4.618 1.252-8.799 3.713-10.348 4.82-0.002 0.002-0.004 0.002-0.007 0.004-0.009 0.004-0.017 0.01-0.026 0.014-0.015 0.01-0.026 0.016-0.041 0.023-0.012 0.004-0.021 0.008-0.033 0.014-0.014 0.002-0.027 0.008-0.042 0.01-0.011 0.004-0.021 0.006-0.03 0.008-0.018 0.002-0.033 0.004-0.052 0.004-0.003 0-0.006 0.002-0.009 0.002-0.002 0-0.006-0.002-0.006-0.002-0.11 0-0.224-0.041-0.303-0.123-0.175-0.182-0.29-0.301 0.694-2.566 0.226-0.518 0.585-1.301 0.997-2.051-2.432 1.496-3.821 4.012-4.35 5.139-0.08 0.17-0.263 0.264-0.444 0.23-0.185-0.033-0.323-0.186-0.338-0.371l-0.296-3.445c-1.877 3.143-1.021 9.492-1.01 9.562 0.024 0.184-0.078 0.364-0.254 0.438-0.049 0.021-0.103 0.031-0.154 0.031-0.129 0-0.252-0.062-0.33-0.166-0.04-0.056-1.879-3.875-3.661-3.312l-0.042 0.014c-0.696 0.256-1.059 1.332-0.706 2.918 0.208 0.943 0.639 1.781 1.114 2.609 0.764 1.336 1.371 2.043 1.938 2.332 0.365 0.186 0.736 0.209 1.192 0.061l0.032-0.012c0.221-0.193 0.65-0.131 0.695 0.258 0.002 0.012 0.003 0.023 0.004 0.035l0.003-0.002 0.003 0.012 0.002 0.043c0 0.01 0.002 0.025 0.004 0.037 0.067 0.578 0.153 1.207 0.252 1.73 0.15 0.702 0.353 1.379 0.591 2.032 1.566 4.562 4.719 6.482 8.171 7.088 1.229 0.218 0.354 0.685 2.579 0.685 0.104 0 0.735 0 0.839 0 2.227 0 1.35-0.467 2.58-0.685 3.449-0.604 6.604-2.524 8.171-7.088 0.376-1.032 0.664-2.117 0.797-3.282 0.017-0.199 0.031-0.398 0.055-0.605 0.046-0.389 0.478-0.451 0.695-0.258l0.034 0.012c0.455 0.148 0.826 0.125 1.191-0.061 0.566-0.289 1.174-0.996 1.938-2.332 0.475-0.828 0.905-1.666 1.114-2.609C67.8 53.156 67.438 52.08 66.742 51.824zM56.021 41.648c-1.631-0.311-3.362-0.488-5.093-0.512l-4.653 4.789c2.41-1.326 5.647-2.762 9.009-3.488L56.021 41.648zM52.669 46.436L60.35 43l-0.492-0.281c-0.896-0.34-1.868-0.633-2.895-0.871L52.669 46.436zM49.771 41.146c-0.82 0.02-1.641 0.076-2.449 0.164l-2.213 4.635L49.771 41.146zM46.352 41.434c-5.541 0.787-10.34 3.096-10.562 6.297 0.646 2.408 1.305 4.105 1.815 5.21-0.137-2.583-0.025-6.993 2.031-9.065 0.114-0.113 0.282-0.15 0.436-0.098 0.15 0.055 0.256 0.193 0.27 0.354l0.266 3.111c0.953-1.605 2.675-3.822 5.311-4.904L46.352 41.434zM63.118 52.883c0.546-1.191 1.255-3.041 1.929-5.693-0.341-1.498-1.685-2.779-3.613-3.77h-0.003l-0.68 0.305C62.977 46.678 63.221 50.539 63.118 52.883zM94.835 39.1l-4.763 1.426-0.66-5.34-4.844 1.969-1.376-5.519-5.365 3.51-1.895-5.746-4.845 4.324-2.97-6.006-4.681 5.074-3.943-6.152-4.78 5.377-4.258-5.68-4.226 5.684-4.779-5.381-3.946 6.152-4.68-5.074-2.97 6.006-4.846-4.324-1.893 5.746-5.365-3.51-1.376 5.519-4.845-1.969-0.66 5.344-5.166-1.566 2.242 5.986c1.802-6.871 20.08-12.271 42.363-12.271 22.229 0 40.468 5.371 42.351 12.217L94.835 39.1z" data-fill-palette-color="accent"></path></svg></g></svg></g><g></g></svg></g><defs></defs></svg><rect width="395.5199999999999" height="231.48344182774764" fill="none" stroke="none" visibility="hidden"></rect></g></svg></g></svg>